<svg width="20" height="20" viewBox="0 0 20 20" fill="none" xmlns="http://www.w3.org/2000/svg">
<path d="M4 2.59556C4 2.59556 4.11333 1.28889 5.51778 1H15.08C15.08 1 16.1489 1.10444 16.5911 2.41556L16.6044 17.16C16.6044 17.16 16.3622 18.6333 14.8778 18.7356H5.51778C5.51778 18.7356 4.24667 18.5378 4 17.1822V2.59556Z" fill="#083556"/>
<path d="M15.6379 16.1578H4.9668V3.57556H15.6379V16.1578Z" fill="#FEFEFE"/>
<path d="M11.8956 2.74219H8.71112C8.5689 2.74219 8.45557 2.62663 8.45557 2.48663C8.45557 2.34441 8.5689 2.23108 8.71112 2.23108H11.8956C12.0356 2.23108 12.1511 2.34441 12.1511 2.48663C12.1511 2.62663 12.0356 2.74219 11.8956 2.74219Z" fill="#FEFEFE"/>
<path d="M11.8956 17.7955H8.71112C8.5689 17.7955 8.45557 17.6822 8.45557 17.5422C8.45557 17.4 8.5689 17.2866 8.71112 17.2866H11.8956C12.0356 17.2866 12.1511 17.4 12.1511 17.5422C12.1511 17.6822 12.0356 17.7955 11.8956 17.7955Z" fill="#FEFEFE"/>
<path d="M8.42213 8.29339L5.79102 7.45561L10.5132 6.56006L14.8132 7.4645L11.9488 8.19339L11.9666 10.1467C11.9666 10.1467 11.7221 10.5134 11.5643 10.6489C11.5643 10.6489 10.8421 10.4978 10.4332 10.5401L10.5132 11.0578H10.131L10.2066 10.5401C10.2066 10.5401 9.59546 10.4801 9.11768 10.6556C9.11768 10.6556 8.65546 10.3512 8.43102 10.0267L8.42213 8.29339Z" fill="#083556"/>
<path d="M13.5309 8.52003H13.4087V7.82225L13.5309 7.79114V8.52003Z" fill="#083556"/>
<path d="M13.2998 11.4022H13.6354L13.6398 8.80891L13.5309 8.52002H13.4087L13.2998 8.80891" fill="#083556"/>
<path d="M13.4868 8.36892H13.4668C13.3824 8.36892 13.3135 8.30003 13.3135 8.21559C13.3135 8.13115 13.3824 8.06226 13.4668 8.06226H13.4868C13.5713 8.06226 13.6401 8.13115 13.6401 8.21559C13.6401 8.30003 13.5713 8.36892 13.4868 8.36892Z" fill="#083556"/>
<path d="M9.11765 15.9645C9.11765 15.9645 8.23543 14.6801 7.0332 13.8623L7.89765 11.2312C7.89765 11.2312 8.83543 10.6578 10.0554 10.6667L9.59098 13.6712L10.3021 14.4712L10.3199 15.9645H9.11765Z" fill="#C2253B"/>
<path d="M11.5067 15.9645C11.5067 15.9645 12.3889 14.6801 13.5911 13.8623L12.7245 11.2312C12.7245 11.2312 11.7889 10.6578 10.5689 10.6667L11.0311 13.6712L10.32 14.4712L10.3022 15.9645H11.5067Z" fill="#C2253B"/>
</svg>
