<svg width="160" height="36" viewBox="0 0 160 36" fill="none" xmlns="http://www.w3.org/2000/svg">
<path d="M0 3.23326C0 3.23326 0.221709 0.591224 2.88222 0H21.0624C21.0624 0 23.0947 0.221709 23.9261 2.86374L23.9631 32.6836C23.9631 32.6836 23.5012 35.6582 20.6744 35.8799H2.88222C2.88222 35.8799 0.461894 35.4734 0 32.739V3.23326Z" fill="white"/>
<path d="M22.1155 30.6698H1.8291V5.21021H22.1155V30.6698Z" fill="#053F69"/>
<path d="M8.46191 2.6975C8.46191 2.58664 8.55429 2.49426 8.66515 2.49426H15.2795C15.3903 2.49426 15.4827 2.58664 15.4827 2.6975V3.32567C15.4827 3.43653 15.3903 3.5289 15.2795 3.5289H8.66515C8.55429 3.5289 8.46191 3.43653 8.46191 3.32567V2.6975Z" fill="#0E3455"/>
<path d="M8.46191 33.1455C8.46191 33.0346 8.55429 32.9423 8.66515 32.9423H15.2795C15.3903 32.9423 15.4827 33.0346 15.4827 33.1455V33.7737C15.4827 33.8845 15.3903 33.9769 15.2795 33.9769H8.66515C8.55429 33.9769 8.46191 33.8845 8.46191 33.7737V33.1455Z" fill="#0E3455"/>
<path d="M8.40634 14.7621L3.39941 13.0623L12.3786 11.2517L20.5449 13.0808L15.113 14.5589L15.1315 18.4942C15.1315 18.4942 14.6696 19.2517 14.374 19.5104C14.374 19.5104 13.0068 19.2148 12.2308 19.3071L12.3786 20.3418H11.6581L11.7874 19.3071C11.7874 19.3071 10.6234 19.1778 9.71812 19.5288C9.71812 19.5288 8.84976 18.9191 8.42482 18.254L8.40634 14.7621Z" fill="white"/>
<path d="M18.106 15.224H17.8843V13.8014L18.106 13.746V15.224Z" fill="white"/>
<path d="M17.6626 21.0439H18.3092L18.3277 15.7967L18.106 15.224H17.8843L17.6626 15.7967" fill="white"/>
<path d="M18.1986 14.9099H17.829C17.7551 14.9099 17.6997 14.8544 17.6997 14.7805V14.411C17.6997 14.3556 17.7551 14.3002 17.829 14.3002H18.1986C18.2725 14.3002 18.3279 14.3556 18.3279 14.411V14.7805C18.3279 14.8544 18.2725 14.9099 18.1986 14.9099Z" fill="white"/>
<path d="M9.71797 30.2633C9.71797 30.2633 8.03668 27.6767 5.76416 26.0138L7.4085 20.6928C7.4085 20.6928 9.18217 19.5289 11.5101 19.5473L10.6233 25.6259L11.972 27.2517L12.009 30.2633H9.71797Z" fill="#C2253B"/>
<path d="M14.2632 30.2633C14.2632 30.2633 15.9445 27.6767 18.217 26.0138L16.5726 20.6928C16.5726 20.6928 14.799 19.5289 12.4895 19.5473L13.3578 25.6259L12.0091 27.2517L11.9722 30.2633H14.2632Z" fill="#C2253B"/>
<path d="M43.732 22.7436H49.5334L41.9399 12.8961L49.1639 5.06234H43.6581L36.8221 12.4157V5.06234H31.8706V22.7436H36.8221V18.3279L38.6882 16.3326L43.732 22.7436ZM50.8452 22.7436H64.2771V18.7713H55.8521V5.06234H50.8452V22.7436ZM74.5126 4.7113C69.5057 4.7113 66.1062 7.74133 66.1062 13.1917V22.7436H71.0207V18.8268H77.9122V22.7436H82.9191V13.1917C82.9191 7.74133 79.5196 4.7113 74.5126 4.7113ZM71.0207 14.9653V12.7667C71.0207 10.0877 72.4434 8.84987 74.4942 8.84987C76.508 8.84987 77.9122 10.0877 77.9122 12.7667V14.9653H71.0207ZM92.5265 23.0947C97.7736 23.0947 100.342 20.4711 100.342 17.3857C100.342 10.8637 90.3279 12.8961 90.3279 10.1986C90.3279 9.31177 91.0854 8.59121 93.1731 8.59121C94.7251 8.59121 96.3879 9.0531 98.0692 9.95842L99.6212 6.24479C97.8845 5.2471 95.5011 4.7113 93.2101 4.7113C87.9445 4.7113 85.3764 7.27943 85.3764 10.4388C85.3764 17.0162 95.4272 14.9653 95.4272 17.7737C95.4272 18.6235 94.6143 19.2148 92.545 19.2148C90.4942 19.2148 88.2771 18.4942 86.7066 17.4596L85.0623 21.1547C86.7436 22.3187 89.6258 23.0947 92.5265 23.0947ZM108.859 23.0947C114.106 23.0947 116.693 20.4711 116.693 17.3857C116.693 10.8637 106.66 12.8961 106.66 10.1986C106.66 9.31177 107.418 8.59121 109.524 8.59121C111.058 8.59121 112.72 9.0531 114.42 9.95842L115.954 6.24479C114.217 5.2471 111.834 4.7113 109.543 4.7113C104.296 4.7113 101.709 7.27943 101.709 10.4388C101.709 17.0162 111.76 14.9653 111.76 17.7737C111.76 18.6235 110.965 19.2148 108.896 19.2148C106.845 19.2148 104.61 18.4942 103.058 17.4596L101.413 21.1547C103.076 22.3187 105.958 23.0947 108.859 23.0947Z" fill="white"/>
<path d="M121.293 22.9654C122.938 22.9654 124.176 21.7829 124.176 20.1201C124.176 18.4019 122.938 17.2933 121.293 17.2933C119.667 17.2933 118.411 18.4019 118.411 20.1201C118.411 21.7829 119.667 22.9654 121.293 22.9654ZM126.651 22.7437H140.083V18.7714H131.64V5.06238H126.651V22.7437ZM153.922 22.7437H159.723L152.129 12.8961L159.353 5.06238H153.848L146.993 12.4157V5.06238H142.042V22.7437H146.993V18.328L148.878 16.3326L153.922 22.7437Z" fill="#D02C31"/>
<path d="M136.684 26.4573V25.6998H132.379V31.7968H133.247V29.3395H136.314V28.582H133.247V26.4573H136.684ZM142.19 31.7968H143.113L140.342 25.6998H139.474L136.721 31.7968H137.608L138.291 30.2817H141.524L142.19 31.7968ZM138.587 29.5612L139.899 26.5866L141.21 29.5612H138.587ZM146.642 31.8522C147.603 31.8522 148.416 31.5196 148.97 30.8914L148.416 30.3556C147.935 30.8545 147.363 31.0762 146.698 31.0762C145.312 31.0762 144.296 30.097 144.296 28.7483C144.296 27.3995 145.312 26.4018 146.698 26.4018C147.363 26.4018 147.935 26.6235 148.416 27.1224L148.97 26.5681C148.416 25.9399 147.603 25.6259 146.661 25.6259C144.813 25.6259 143.427 26.9376 143.427 28.7483C143.427 30.5404 144.813 31.8522 146.642 31.8522ZM151.353 31.7968H152.222V26.4573H154.31V25.6998H149.266V26.4573H151.353V31.7968ZM156.952 31.8522C158.578 31.8522 159.317 31.0577 159.317 30.1339C159.317 27.8984 155.621 28.8222 155.621 27.3256C155.621 26.8083 156.065 26.3649 157.099 26.3649C157.654 26.3649 158.245 26.5312 158.781 26.8637L159.076 26.1617C158.559 25.8106 157.82 25.6259 157.099 25.6259C155.511 25.6259 154.772 26.4203 154.772 27.3626C154.772 29.6351 158.467 28.6928 158.467 30.1709C158.467 30.7067 158.005 31.1132 156.952 31.1132C156.176 31.1132 155.4 30.8175 154.956 30.4111L154.624 31.0947C155.123 31.5381 156.028 31.8522 156.952 31.8522Z" fill="white"/>
</svg>
