<svg width="160" height="36" viewBox="0 0 160 36" fill="none" xmlns="http://www.w3.org/2000/svg">
<path d="M0.166504 3.29331C0.166504 3.29331 0.388213 0.651283 3.04872 0.0600586H21.2289C21.2289 0.0600586 23.2612 0.281768 24.0926 2.9238L24.1296 32.7437C24.1296 32.7437 23.6677 35.7183 20.8409 35.94H3.04872C3.04872 35.94 0.628398 35.5335 0.166504 32.7991V3.29331Z" fill="#083556"/>
<path d="M22.282 30.7298H1.99561V5.27026H22.282V30.7298Z" fill="#FEFEFE"/>
<path d="M15.446 3.58896H8.83165C8.7208 3.58896 8.62842 3.49658 8.62842 3.38573V2.75755C8.62842 2.6467 8.7208 2.55432 8.83165 2.55432H15.446C15.5568 2.55432 15.6492 2.6467 15.6492 2.75755V3.38573C15.6492 3.49658 15.5568 3.58896 15.446 3.58896Z" fill="#FEFEFE"/>
<path d="M15.446 34.037H8.83165C8.7208 34.037 8.62842 33.9446 8.62842 33.8337V33.2056C8.62842 33.0947 8.7208 33.0023 8.83165 33.0023H15.446C15.5568 33.0023 15.6492 33.0947 15.6492 33.2056V33.8337C15.6492 33.9446 15.5568 34.037 15.446 34.037Z" fill="#FEFEFE"/>
<path d="M8.57285 14.8222L3.56592 13.1224L12.5451 11.3118L20.7114 13.1409L15.2795 14.6189L15.298 18.5543C15.298 18.5543 14.8361 19.3118 14.5405 19.5704C14.5405 19.5704 13.1733 19.2748 12.3973 19.3672L12.5451 20.4018H11.8246L11.9539 19.3672C11.9539 19.3672 10.7899 19.2379 9.88462 19.5889C9.88462 19.5889 9.01626 18.9792 8.59132 18.3141L8.57285 14.8222Z" fill="#083556"/>
<path d="M18.2725 15.2841H18.0508V13.8615L18.2725 13.806V15.2841Z" fill="#083556"/>
<path d="M17.8291 21.1039H18.4758L18.4942 15.8568L18.2725 15.2841H18.0508L17.8291 15.8568" fill="#083556"/>
<path d="M18.3651 14.9699H17.9955C17.9216 14.9699 17.8662 14.9145 17.8662 14.8406V14.4711C17.8662 14.4157 17.9216 14.3602 17.9955 14.3602H18.3651C18.439 14.3602 18.4944 14.4157 18.4944 14.4711V14.8406C18.4944 14.9145 18.439 14.9699 18.3651 14.9699Z" fill="#083556"/>
<path d="M9.88447 30.3233C9.88447 30.3233 8.20318 27.7367 5.93066 26.0739L7.57501 20.7529C7.57501 20.7529 9.34868 19.5889 11.6766 19.6074L10.7898 25.6859L12.1385 27.3118L12.1755 30.3233H9.88447Z" fill="#C2253B"/>
<path d="M14.4297 30.3233C14.4297 30.3233 16.111 27.7367 18.3835 26.0739L16.7391 20.7529C16.7391 20.7529 14.9655 19.5889 12.656 19.6074L13.5244 25.6859L12.1756 27.3118L12.1387 30.3233H14.4297Z" fill="#C2253B"/>
<path d="M43.8985 22.619H49.6999L42.1064 12.7714L49.3304 4.93771H43.8246L36.9886 12.2911V4.93771H32.0371V22.619H36.9886V18.2033L38.8547 16.2079L43.8985 22.619ZM51.0117 22.619H64.4436V18.6467H56.0186V4.93771H51.0117V22.619ZM74.6791 4.58667C69.6722 4.58667 66.2727 7.61669 66.2727 13.067V22.619H71.1872V18.7021H78.0787V22.619H83.0856V13.067C83.0856 7.61669 79.6861 4.58667 74.6791 4.58667ZM71.1872 14.8407V12.6421C71.1872 9.96311 72.6099 8.72524 74.6607 8.72524C76.6745 8.72524 78.0787 9.96311 78.0787 12.6421V14.8407H71.1872ZM92.693 22.97C97.9401 22.97 100.508 20.3465 100.508 17.261C100.508 10.7391 90.4944 12.7714 90.4944 10.074C90.4944 9.18713 91.2519 8.46658 93.3397 8.46658C94.8916 8.46658 96.5544 8.92847 98.2357 9.83378L99.7877 6.12016C98.051 5.12247 95.6676 4.58667 93.3766 4.58667C88.111 4.58667 85.5429 7.1548 85.5429 10.3142C85.5429 16.8915 95.5937 14.8407 95.5937 17.649C95.5937 18.4989 94.7808 19.0901 92.7115 19.0901C90.6607 19.0901 88.4436 18.3696 86.8731 17.3349L85.2288 21.0301C86.9101 22.1941 89.7923 22.97 92.693 22.97ZM109.026 22.97C114.273 22.97 116.859 20.3465 116.859 17.261C116.859 10.7391 106.827 12.7714 106.827 10.074C106.827 9.18713 107.584 8.46658 109.691 8.46658C111.224 8.46658 112.887 8.92847 114.587 9.83378L116.12 6.12016C114.384 5.12247 112 4.58667 109.709 4.58667C104.462 4.58667 101.875 7.1548 101.875 10.3142C101.875 16.8915 111.926 14.8407 111.926 17.649C111.926 18.4989 111.132 19.0901 109.063 19.0901C107.012 19.0901 104.776 18.3696 103.224 17.3349L101.58 21.0301C103.243 22.1941 106.125 22.97 109.026 22.97Z" fill="#0E3455"/>
<path d="M121.46 22.8407C123.104 22.8407 124.342 21.6583 124.342 19.9955C124.342 18.2772 123.104 17.1687 121.46 17.1687C119.834 17.1687 118.578 18.2772 118.578 19.9955C118.578 21.6583 119.834 22.8407 121.46 22.8407ZM126.818 22.619H140.25V18.6467H131.806V4.93774H126.818V22.619ZM154.088 22.619H159.889L152.296 12.7715L159.52 4.93774H154.014L147.16 12.2911V4.93774H142.208V22.619H147.16V18.2033L149.044 16.208L154.088 22.619Z" fill="#D02C31"/>
<path d="M136.85 26.5174V25.7599H132.545V31.8569H133.414V29.3997H136.481V28.6422H133.414V26.5174H136.85ZM142.356 31.8569H143.28L140.508 25.7599H139.64L136.887 31.8569H137.774L138.458 30.3419H141.691L142.356 31.8569ZM138.753 29.6214L140.065 26.6468L141.377 29.6214H138.753ZM146.809 31.9124C147.769 31.9124 148.582 31.5798 149.137 30.9516L148.582 30.4158C148.102 30.9147 147.529 31.1364 146.864 31.1364C145.478 31.1364 144.462 30.1572 144.462 28.8084C144.462 27.4597 145.478 26.462 146.864 26.462C147.529 26.462 148.102 26.6837 148.582 27.1826L149.137 26.6283C148.582 26.0001 147.769 25.686 146.827 25.686C144.98 25.686 143.594 26.9978 143.594 28.8084C143.594 30.6006 144.98 31.9124 146.809 31.9124ZM151.52 31.8569H152.388V26.5174H154.476V25.7599H149.432V26.5174H151.52V31.8569ZM157.118 31.9124C158.744 31.9124 159.483 31.1179 159.483 30.1941C159.483 27.9586 155.788 28.8823 155.788 27.3858C155.788 26.8685 156.231 26.4251 157.266 26.4251C157.82 26.4251 158.411 26.5913 158.947 26.9239L159.243 26.2218C158.726 25.8708 157.987 25.686 157.266 25.686C155.677 25.686 154.938 26.4805 154.938 27.4228C154.938 29.6953 158.633 28.753 158.633 30.2311C158.633 30.7669 158.171 31.1733 157.118 31.1733C156.342 31.1733 155.566 30.8777 155.123 30.4713L154.79 31.1549C155.289 31.5983 156.194 31.9124 157.118 31.9124Z" fill="#0E3455"/>
</svg>
